<?xml version="1.0" encoding="utf-8" standalone="no"?>
<!DOCTYPE svg PUBLIC "-//W3C//DTD SVG 1.1//EN"
  "http://www.w3.org/Graphics/SVG/1.1/DTD/svg11.dtd">
<svg xmlns:xlink="http://www.w3.org/1999/xlink" width="856.8pt" height="567.8979pt" viewBox="0 0 856.8 567.8979" xmlns="http://www.w3.org/2000/svg" version="1.1">
 <metadata>
  <rdf:RDF xmlns:dc="http://purl.org/dc/elements/1.1/" xmlns:cc="http://creativecommons.org/ns#" xmlns:rdf="http://www.w3.org/1999/02/22-rdf-syntax-ns#">
   <cc:Work>
    <dc:type rdf:resource="http://purl.org/dc/dcmitype/StillImage"/>
    <dc:date>2025-08-24T19:25:09.325831</dc:date>
    <dc:format>image/svg+xml</dc:format>
    <dc:creator>
     <cc:Agent>
      <dc:title>Matplotlib v3.10.5, https://matplotlib.org/</dc:title>
     </cc:Agent>
    </dc:creator>
   </cc:Work>
  </rdf:RDF>
 </metadata>
 <defs>
  <style type="text/css">*{stroke-linejoin: round; stroke-linecap: butt}</style>
 </defs>
 <g id="figure_1">
  <g id="patch_1">
   <path d="M 0 567.8979 
L 856.8 567.8979 
L 856.8 0 
L 0 0 
z
" style="fill: #ffffff"/>
  </g>
  <g id="axes_1">
   <g id="patch_2">
    <path d="M 344.16 109.297304 
L 512.64 109.297304 
Q 521.064 109.297304 521.064 104.0788 
L 521.064 77.98628 
Q 521.064 72.767776 512.64 72.767776 
L 344.16 72.767776 
Q 335.736 72.767776 335.736 77.98628 
L 335.736 104.0788 
Q 335.736 109.297304 344.16 109.297304 
z
" clip-path="url(#pa1dbc5463e)" style="fill: #90ee90; stroke: #000000; stroke-linejoin: miter"/>
   </g>
   <g id="patch_3">
    <path d="M 323.1 161.482344 
L 533.7 161.482344 
Q 542.124 161.482344 542.124 156.26384 
L 542.124 130.17132 
Q 542.124 124.952816 533.7 124.952816 
L 323.1 124.952816 
Q 314.676 124.952816 314.676 130.17132 
L 314.676 156.26384 
Q 314.676 161.482344 323.1 161.482344 
z
" clip-path="url(#pa1dbc5463e)" style="fill: #add8e6; stroke: #000000; stroke-linejoin: miter"/>
   </g>
   <g id="patch_4">
    <path d="M 323.1 213.667384 
L 533.7 213.667384 
Q 542.124 213.667384 542.124 208.44888 
L 542.124 182.35636 
Q 542.124 177.137856 533.7 177.137856 
L 323.1 177.137856 
Q 314.676 177.137856 314.676 182.35636 
L 314.676 208.44888 
Q 314.676 213.667384 323.1 213.667384 
z
" clip-path="url(#pa1dbc5463e)" style="fill: #add8e6; stroke: #000000; stroke-linejoin: miter"/>
   </g>
   <g id="patch_5">
    <path d="M 323.1 265.852424 
L 533.7 265.852424 
Q 542.124 265.852424 542.124 260.63392 
L 542.124 234.5414 
Q 542.124 229.322896 533.7 229.322896 
L 323.1 229.322896 
Q 314.676 229.322896 314.676 234.5414 
L 314.676 260.63392 
Q 314.676 265.852424 323.1 265.852424 
z
" clip-path="url(#pa1dbc5463e)" style="fill: #add8e6; stroke: #000000; stroke-linejoin: miter"/>
   </g>
   <g id="patch_6">
    <path d="M 344.16 320.646716 
L 512.64 320.646716 
Q 521.064 320.646716 521.064 315.428212 
L 521.064 284.117188 
Q 521.064 278.898684 512.64 278.898684 
L 344.16 278.898684 
Q 335.736 278.898684 335.736 284.117188 
L 335.736 315.428212 
Q 335.736 320.646716 344.16 320.646716 
z
" clip-path="url(#pa1dbc5463e)" style="fill: #ffff00; stroke: #000000; stroke-linejoin: miter"/>
   </g>
   <g id="patch_7">
    <path d="M 133.56 370.222504 
L 302.04 370.222504 
Q 310.464 370.222504 310.464 365.004 
L 310.464 338.91148 
Q 310.464 333.692976 302.04 333.692976 
L 133.56 333.692976 
Q 125.136 333.692976 125.136 338.91148 
L 125.136 365.004 
Q 125.136 370.222504 133.56 370.222504 
z
" clip-path="url(#pa1dbc5463e)" style="fill: #ffa500; stroke: #000000; stroke-linejoin: miter"/>
   </g>
   <g id="patch_8">
    <path d="M 554.76 370.222504 
L 723.24 370.222504 
Q 731.664 370.222504 731.664 365.004 
L 731.664 338.91148 
Q 731.664 333.692976 723.24 333.692976 
L 554.76 333.692976 
Q 546.336 333.692976 546.336 338.91148 
L 546.336 365.004 
Q 546.336 370.222504 554.76 370.222504 
z
" clip-path="url(#pa1dbc5463e)" style="fill: #add8e6; stroke: #000000; stroke-linejoin: miter"/>
   </g>
   <g id="patch_9">
    <path d="M 323.1 422.407544 
L 533.7 422.407544 
Q 542.124 422.407544 542.124 417.18904 
L 542.124 391.09652 
Q 542.124 385.878016 533.7 385.878016 
L 323.1 385.878016 
Q 314.676 385.878016 314.676 391.09652 
L 314.676 417.18904 
Q 314.676 422.407544 323.1 422.407544 
z
" clip-path="url(#pa1dbc5463e)" style="fill: #add8e6; stroke: #000000; stroke-linejoin: miter"/>
   </g>
   <g id="patch_10">
    <path d="M 323.1 474.592584 
L 533.7 474.592584 
Q 542.124 474.592584 542.124 469.37408 
L 542.124 443.28156 
Q 542.124 438.063056 533.7 438.063056 
L 323.1 438.063056 
Q 314.676 438.063056 314.676 443.28156 
L 314.676 469.37408 
Q 314.676 474.592584 323.1 474.592584 
z
" clip-path="url(#pa1dbc5463e)" style="fill: #add8e6; stroke: #000000; stroke-linejoin: miter"/>
   </g>
   <g id="patch_11">
    <path d="M 323.1 526.777624 
L 533.7 526.777624 
Q 542.124 526.777624 542.124 521.55912 
L 542.124 495.4666 
Q 542.124 490.248096 533.7 490.248096 
L 323.1 490.248096 
Q 314.676 490.248096 314.676 495.4666 
L 314.676 521.55912 
Q 314.676 526.777624 323.1 526.777624 
z
" clip-path="url(#pa1dbc5463e)" style="fill: #add8e6; stroke: #000000; stroke-linejoin: miter"/>
   </g>
   <g id="patch_12">
    <path d="M 344.16 565.916404 
L 512.64 565.916404 
Q 521.064 565.916404 521.064 560.6979 
L 521.064 539.823884 
Q 521.064 534.60538 512.64 534.60538 
L 344.16 534.60538 
Q 335.736 534.60538 335.736 539.823884 
L 335.736 560.6979 
Q 335.736 565.916404 344.16 565.916404 
z
" clip-path="url(#pa1dbc5463e)" style="fill: #f08080; stroke: #000000; stroke-linejoin: miter"/>
   </g>
   <g id="text_1">
    <!-- Start V-Cycle -->
    <g style="fill: #262626" transform="translate(397.553125 88.273009) scale(0.1 -0.1)">
     <defs>
      <path id="Arial-BoldMT-53" d="M 231 1491 
L 1131 1578 
Q 1213 1125 1461 912 
Q 1709 700 2131 700 
Q 2578 700 2804 889 
Q 3031 1078 3031 1331 
Q 3031 1494 2936 1608 
Q 2841 1722 2603 1806 
Q 2441 1863 1863 2006 
Q 1119 2191 819 2459 
Q 397 2838 397 3381 
Q 397 3731 595 4036 
Q 794 4341 1167 4500 
Q 1541 4659 2069 4659 
Q 2931 4659 3367 4281 
Q 3803 3903 3825 3272 
L 2900 3231 
Q 2841 3584 2645 3739 
Q 2450 3894 2059 3894 
Q 1656 3894 1428 3728 
Q 1281 3622 1281 3444 
Q 1281 3281 1419 3166 
Q 1594 3019 2269 2859 
Q 2944 2700 3267 2529 
Q 3591 2359 3773 2064 
Q 3956 1769 3956 1334 
Q 3956 941 3737 597 
Q 3519 253 3119 86 
Q 2719 -81 2122 -81 
Q 1253 -81 787 320 
Q 322 722 231 1491 
z
" transform="scale(0.015625)"/>
      <path id="Arial-BoldMT-74" d="M 1981 3319 
L 1981 2619 
L 1381 2619 
L 1381 1281 
Q 1381 875 1398 808 
Q 1416 741 1477 697 
Q 1538 653 1625 653 
Q 1747 653 1978 738 
L 2053 56 
Q 1747 -75 1359 -75 
Q 1122 -75 931 4 
Q 741 84 652 211 
Q 563 338 528 553 
Q 500 706 500 1172 
L 500 2619 
L 97 2619 
L 97 3319 
L 500 3319 
L 500 3978 
L 1381 4491 
L 1381 3319 
L 1981 3319 
z
" transform="scale(0.015625)"/>
      <path id="Arial-BoldMT-61" d="M 1116 2306 
L 319 2450 
Q 453 2931 781 3162 
Q 1109 3394 1756 3394 
Q 2344 3394 2631 3255 
Q 2919 3116 3036 2902 
Q 3153 2688 3153 2116 
L 3144 1091 
Q 3144 653 3186 445 
Q 3228 238 3344 0 
L 2475 0 
Q 2441 88 2391 259 
Q 2369 338 2359 363 
Q 2134 144 1878 34 
Q 1622 -75 1331 -75 
Q 819 -75 523 203 
Q 228 481 228 906 
Q 228 1188 362 1408 
Q 497 1628 739 1745 
Q 981 1863 1438 1950 
Q 2053 2066 2291 2166 
L 2291 2253 
Q 2291 2506 2166 2614 
Q 2041 2722 1694 2722 
Q 1459 2722 1328 2630 
Q 1197 2538 1116 2306 
z
M 2291 1594 
Q 2122 1538 1756 1459 
Q 1391 1381 1278 1306 
Q 1106 1184 1106 997 
Q 1106 813 1243 678 
Q 1381 544 1594 544 
Q 1831 544 2047 700 
Q 2206 819 2256 991 
Q 2291 1103 2291 1419 
L 2291 1594 
z
" transform="scale(0.015625)"/>
      <path id="Arial-BoldMT-72" d="M 1300 0 
L 422 0 
L 422 3319 
L 1238 3319 
L 1238 2847 
Q 1447 3181 1614 3287 
Q 1781 3394 1994 3394 
Q 2294 3394 2572 3228 
L 2300 2463 
Q 2078 2606 1888 2606 
Q 1703 2606 1575 2504 
Q 1447 2403 1373 2137 
Q 1300 1872 1300 1025 
L 1300 0 
z
" transform="scale(0.015625)"/>
      <path id="Arial-BoldMT-20" transform="scale(0.015625)"/>
      <path id="Arial-BoldMT-56" d="M 1634 0 
L -3 4581 
L 1000 4581 
L 2159 1191 
L 3281 4581 
L 4263 4581 
L 2622 0 
L 1634 0 
z
" transform="scale(0.015625)"/>
      <path id="Arial-BoldMT-2d" d="M 359 1222 
L 359 2100 
L 2084 2100 
L 2084 1222 
L 359 1222 
z
" transform="scale(0.015625)"/>
      <path id="Arial-BoldMT-43" d="M 3397 1684 
L 4294 1400 
Q 4088 650 3608 286 
Q 3128 -78 2391 -78 
Q 1478 -78 890 545 
Q 303 1169 303 2250 
Q 303 3394 893 4026 
Q 1484 4659 2447 4659 
Q 3288 4659 3813 4163 
Q 4125 3869 4281 3319 
L 3366 3100 
Q 3284 3456 3026 3662 
Q 2769 3869 2400 3869 
Q 1891 3869 1573 3503 
Q 1256 3138 1256 2319 
Q 1256 1450 1568 1081 
Q 1881 713 2381 713 
Q 2750 713 3015 947 
Q 3281 1181 3397 1684 
z
" transform="scale(0.015625)"/>
      <path id="Arial-BoldMT-79" d="M 44 3319 
L 978 3319 
L 1772 963 
L 2547 3319 
L 3456 3319 
L 2284 125 
L 2075 -453 
Q 1959 -744 1854 -897 
Q 1750 -1050 1614 -1145 
Q 1478 -1241 1279 -1294 
Q 1081 -1347 831 -1347 
Q 578 -1347 334 -1294 
L 256 -606 
Q 463 -647 628 -647 
Q 934 -647 1081 -467 
Q 1228 -288 1306 -9 
L 44 3319 
z
" transform="scale(0.015625)"/>
      <path id="Arial-BoldMT-63" d="M 3353 2338 
L 2488 2181 
Q 2444 2441 2289 2572 
Q 2134 2703 1888 2703 
Q 1559 2703 1364 2476 
Q 1169 2250 1169 1719 
Q 1169 1128 1367 884 
Q 1566 641 1900 641 
Q 2150 641 2309 783 
Q 2469 925 2534 1272 
L 3397 1125 
Q 3263 531 2881 228 
Q 2500 -75 1859 -75 
Q 1131 -75 698 384 
Q 266 844 266 1656 
Q 266 2478 700 2936 
Q 1134 3394 1875 3394 
Q 2481 3394 2839 3133 
Q 3197 2872 3353 2338 
z
" transform="scale(0.015625)"/>
      <path id="Arial-BoldMT-6c" d="M 459 0 
L 459 4581 
L 1338 4581 
L 1338 0 
L 459 0 
z
" transform="scale(0.015625)"/>
      <path id="Arial-BoldMT-65" d="M 2381 1056 
L 3256 909 
Q 3088 428 2723 176 
Q 2359 -75 1813 -75 
Q 947 -75 531 491 
Q 203 944 203 1634 
Q 203 2459 634 2926 
Q 1066 3394 1725 3394 
Q 2466 3394 2894 2905 
Q 3322 2416 3303 1406 
L 1103 1406 
Q 1113 1016 1316 798 
Q 1519 581 1822 581 
Q 2028 581 2168 693 
Q 2309 806 2381 1056 
z
M 2431 1944 
Q 2422 2325 2234 2523 
Q 2047 2722 1778 2722 
Q 1491 2722 1303 2513 
Q 1116 2303 1119 1944 
L 2431 1944 
z
" transform="scale(0.015625)"/>
     </defs>
     <use xlink:href="#Arial-BoldMT-53"/>
     <use xlink:href="#Arial-BoldMT-74" transform="translate(66.699219 0)"/>
     <use xlink:href="#Arial-BoldMT-61" transform="translate(100 0)"/>
     <use xlink:href="#Arial-BoldMT-72" transform="translate(155.615234 0)"/>
     <use xlink:href="#Arial-BoldMT-74" transform="translate(194.53125 0)"/>
     <use xlink:href="#Arial-BoldMT-20" transform="translate(227.832031 0)"/>
     <use xlink:href="#Arial-BoldMT-56" transform="translate(255.615234 0)"/>
     <use xlink:href="#Arial-BoldMT-2d" transform="translate(316.814453 0)"/>
     <use xlink:href="#Arial-BoldMT-43" transform="translate(350.115234 0)"/>
     <use xlink:href="#Arial-BoldMT-79" transform="translate(422.332031 0)"/>
     <use xlink:href="#Arial-BoldMT-63" transform="translate(477.947266 0)"/>
     <use xlink:href="#Arial-BoldMT-6c" transform="translate(533.5625 0)"/>
     <use xlink:href="#Arial-BoldMT-65" transform="translate(561.345703 0)"/>
    </g>
    <!-- Initial guess u⁰ -->
    <g style="fill: #262626" transform="translate(391.313281 98.967071) scale(0.1 -0.1)">
     <defs>
      <path id="Arial-BoldMT-49" d="M 438 0 
L 438 4581 
L 1363 4581 
L 1363 0 
L 438 0 
z
" transform="scale(0.015625)"/>
      <path id="Arial-BoldMT-6e" d="M 3478 0 
L 2600 0 
L 2600 1694 
Q 2600 2231 2544 2389 
Q 2488 2547 2361 2634 
Q 2234 2722 2056 2722 
Q 1828 2722 1647 2597 
Q 1466 2472 1398 2265 
Q 1331 2059 1331 1503 
L 1331 0 
L 453 0 
L 453 3319 
L 1269 3319 
L 1269 2831 
Q 1703 3394 2363 3394 
Q 2653 3394 2893 3289 
Q 3134 3184 3257 3021 
Q 3381 2859 3429 2653 
Q 3478 2447 3478 2063 
L 3478 0 
z
" transform="scale(0.015625)"/>
      <path id="Arial-BoldMT-69" d="M 459 3769 
L 459 4581 
L 1338 4581 
L 1338 3769 
L 459 3769 
z
M 459 0 
L 459 3319 
L 1338 3319 
L 1338 0 
L 459 0 
z
" transform="scale(0.015625)"/>
      <path id="Arial-BoldMT-67" d="M 378 -219 
L 1381 -341 
Q 1406 -516 1497 -581 
Q 1622 -675 1891 -675 
Q 2234 -675 2406 -572 
Q 2522 -503 2581 -350 
Q 2622 -241 2622 53 
L 2622 538 
Q 2228 0 1628 0 
Q 959 0 569 566 
Q 263 1013 263 1678 
Q 263 2513 664 2953 
Q 1066 3394 1663 3394 
Q 2278 3394 2678 2853 
L 2678 3319 
L 3500 3319 
L 3500 341 
Q 3500 -247 3403 -537 
Q 3306 -828 3131 -993 
Q 2956 -1159 2664 -1253 
Q 2372 -1347 1925 -1347 
Q 1081 -1347 728 -1058 
Q 375 -769 375 -325 
Q 375 -281 378 -219 
z
M 1163 1728 
Q 1163 1200 1367 954 
Q 1572 709 1872 709 
Q 2194 709 2416 961 
Q 2638 1213 2638 1706 
Q 2638 2222 2425 2472 
Q 2213 2722 1888 2722 
Q 1572 2722 1367 2476 
Q 1163 2231 1163 1728 
z
" transform="scale(0.015625)"/>
      <path id="Arial-BoldMT-75" d="M 2644 0 
L 2644 497 
Q 2463 231 2167 78 
Q 1872 -75 1544 -75 
Q 1209 -75 943 72 
Q 678 219 559 484 
Q 441 750 441 1219 
L 441 3319 
L 1319 3319 
L 1319 1794 
Q 1319 1094 1367 936 
Q 1416 778 1544 686 
Q 1672 594 1869 594 
Q 2094 594 2272 717 
Q 2450 841 2515 1023 
Q 2581 1206 2581 1919 
L 2581 3319 
L 3459 3319 
L 3459 0 
L 2644 0 
z
" transform="scale(0.015625)"/>
      <path id="Arial-BoldMT-73" d="M 150 947 
L 1031 1081 
Q 1088 825 1259 692 
Q 1431 559 1741 559 
Q 2081 559 2253 684 
Q 2369 772 2369 919 
Q 2369 1019 2306 1084 
Q 2241 1147 2013 1200 
Q 950 1434 666 1628 
Q 272 1897 272 2375 
Q 272 2806 612 3100 
Q 953 3394 1669 3394 
Q 2350 3394 2681 3172 
Q 3013 2950 3138 2516 
L 2309 2363 
Q 2256 2556 2107 2659 
Q 1959 2763 1684 2763 
Q 1338 2763 1188 2666 
Q 1088 2597 1088 2488 
Q 1088 2394 1175 2328 
Q 1294 2241 1995 2081 
Q 2697 1922 2975 1691 
Q 3250 1456 3250 1038 
Q 3250 581 2869 253 
Q 2488 -75 1741 -75 
Q 1063 -75 667 200 
Q 272 475 150 947 
z
" transform="scale(0.015625)"/>
      <path id="Arial-BoldMT-2070" d="M 800 0 
L 800 4000 
L 4000 4000 
L 4000 0 
L 800 0 
z
M 900 100 
L 3900 100 
L 3900 3900 
L 900 3900 
L 900 100 
z
" transform="scale(0.015625)"/>
     </defs>
     <use xlink:href="#Arial-BoldMT-49"/>
     <use xlink:href="#Arial-BoldMT-6e" transform="translate(27.783203 0)"/>
     <use xlink:href="#Arial-BoldMT-69" transform="translate(88.867188 0)"/>
     <use xlink:href="#Arial-BoldMT-74" transform="translate(116.650391 0)"/>
     <use xlink:href="#Arial-BoldMT-69" transform="translate(149.951172 0)"/>
     <use xlink:href="#Arial-BoldMT-61" transform="translate(177.734375 0)"/>
     <use xlink:href="#Arial-BoldMT-6c" transform="translate(233.349609 0)"/>
     <use xlink:href="#Arial-BoldMT-20" transform="translate(261.132812 0)"/>
     <use xlink:href="#Arial-BoldMT-67" transform="translate(288.916016 0)"/>
     <use xlink:href="#Arial-BoldMT-75" transform="translate(350 0)"/>
     <use xlink:href="#Arial-BoldMT-65" transform="translate(411.083984 0)"/>
     <use xlink:href="#Arial-BoldMT-73" transform="translate(466.699219 0)"/>
     <use xlink:href="#Arial-BoldMT-73" transform="translate(522.314453 0)"/>
     <use xlink:href="#Arial-BoldMT-20" transform="translate(577.929688 0)"/>
     <use xlink:href="#Arial-BoldMT-75" transform="translate(605.712891 0)"/>
     <use xlink:href="#Arial-BoldMT-2070" transform="translate(666.796875 0)"/>
    </g>
   </g>
   <g id="text_2">
    <!-- Pre-smooth: ν₁ steps -->
    <g style="fill: #262626" transform="translate(376.586719 140.528361) scale(0.1 -0.1)">
     <defs>
      <path id="Arial-BoldMT-50" d="M 466 0 
L 466 4581 
L 1950 4581 
Q 2794 4581 3050 4513 
Q 3444 4409 3709 4064 
Q 3975 3719 3975 3172 
Q 3975 2750 3822 2462 
Q 3669 2175 3433 2011 
Q 3197 1847 2953 1794 
Q 2622 1728 1994 1728 
L 1391 1728 
L 1391 0 
L 466 0 
z
M 1391 3806 
L 1391 2506 
L 1897 2506 
Q 2444 2506 2628 2578 
Q 2813 2650 2917 2803 
Q 3022 2956 3022 3159 
Q 3022 3409 2875 3571 
Q 2728 3734 2503 3775 
Q 2338 3806 1838 3806 
L 1391 3806 
z
" transform="scale(0.015625)"/>
      <path id="Arial-BoldMT-6d" d="M 394 3319 
L 1203 3319 
L 1203 2866 
Q 1638 3394 2238 3394 
Q 2556 3394 2790 3262 
Q 3025 3131 3175 2866 
Q 3394 3131 3647 3262 
Q 3900 3394 4188 3394 
Q 4553 3394 4806 3245 
Q 5059 3097 5184 2809 
Q 5275 2597 5275 2122 
L 5275 0 
L 4397 0 
L 4397 1897 
Q 4397 2391 4306 2534 
Q 4184 2722 3931 2722 
Q 3747 2722 3584 2609 
Q 3422 2497 3350 2280 
Q 3278 2063 3278 1594 
L 3278 0 
L 2400 0 
L 2400 1819 
Q 2400 2303 2353 2443 
Q 2306 2584 2207 2653 
Q 2109 2722 1941 2722 
Q 1738 2722 1575 2612 
Q 1413 2503 1342 2297 
Q 1272 2091 1272 1613 
L 1272 0 
L 394 0 
L 394 3319 
z
" transform="scale(0.015625)"/>
      <path id="Arial-BoldMT-6f" d="M 256 1706 
Q 256 2144 472 2553 
Q 688 2963 1083 3178 
Q 1478 3394 1966 3394 
Q 2719 3394 3200 2905 
Q 3681 2416 3681 1669 
Q 3681 916 3195 420 
Q 2709 -75 1972 -75 
Q 1516 -75 1102 131 
Q 688 338 472 736 
Q 256 1134 256 1706 
z
M 1156 1659 
Q 1156 1166 1390 903 
Q 1625 641 1969 641 
Q 2313 641 2545 903 
Q 2778 1166 2778 1666 
Q 2778 2153 2545 2415 
Q 2313 2678 1969 2678 
Q 1625 2678 1390 2415 
Q 1156 2153 1156 1659 
z
" transform="scale(0.015625)"/>
      <path id="Arial-BoldMT-68" d="M 1334 4581 
L 1334 2897 
Q 1759 3394 2350 3394 
Q 2653 3394 2897 3281 
Q 3141 3169 3264 2994 
Q 3388 2819 3433 2606 
Q 3478 2394 3478 1947 
L 3478 0 
L 2600 0 
L 2600 1753 
Q 2600 2275 2550 2415 
Q 2500 2556 2373 2639 
Q 2247 2722 2056 2722 
Q 1838 2722 1666 2615 
Q 1494 2509 1414 2295 
Q 1334 2081 1334 1663 
L 1334 0 
L 456 0 
L 456 4581 
L 1334 4581 
z
" transform="scale(0.015625)"/>
      <path id="Arial-BoldMT-3a" d="M 628 2441 
L 628 3319 
L 1506 3319 
L 1506 2441 
L 628 2441 
z
M 628 0 
L 628 878 
L 1506 878 
L 1506 0 
L 628 0 
z
" transform="scale(0.015625)"/>
      <path id="Arial-BoldMT-3bd" d="M 1372 0 
L 34 3319 
L 956 3319 
L 1581 1625 
L 1763 1059 
Q 1834 1275 1853 1344 
Q 1897 1484 1947 1625 
L 2578 3319 
L 3481 3319 
L 2163 0 
L 1372 0 
z
" transform="scale(0.015625)"/>
      <path id="Arial-BoldMT-2081" d="M 800 0 
L 800 4000 
L 4000 4000 
L 4000 0 
L 800 0 
z
M 900 100 
L 3900 100 
L 3900 3900 
L 900 3900 
L 900 100 
z
" transform="scale(0.015625)"/>
      <path id="Arial-BoldMT-70" d="M 434 3319 
L 1253 3319 
L 1253 2831 
Q 1413 3081 1684 3237 
Q 1956 3394 2288 3394 
Q 2866 3394 3269 2941 
Q 3672 2488 3672 1678 
Q 3672 847 3265 386 
Q 2859 -75 2281 -75 
Q 2006 -75 1782 34 
Q 1559 144 1313 409 
L 1313 -1263 
L 434 -1263 
L 434 3319 
z
M 1303 1716 
Q 1303 1156 1525 889 
Q 1747 622 2066 622 
Q 2372 622 2575 867 
Q 2778 1113 2778 1672 
Q 2778 2194 2568 2447 
Q 2359 2700 2050 2700 
Q 1728 2700 1515 2451 
Q 1303 2203 1303 1716 
z
" transform="scale(0.015625)"/>
     </defs>
     <use xlink:href="#Arial-BoldMT-50"/>
     <use xlink:href="#Arial-BoldMT-72" transform="translate(66.699219 0)"/>
     <use xlink:href="#Arial-BoldMT-65" transform="translate(105.615234 0)"/>
     <use xlink:href="#Arial-BoldMT-2d" transform="translate(161.230469 0)"/>
     <use xlink:href="#Arial-BoldMT-73" transform="translate(194.53125 0)"/>
     <use xlink:href="#Arial-BoldMT-6d" transform="translate(250.146484 0)"/>
     <use xlink:href="#Arial-BoldMT-6f" transform="translate(339.0625 0)"/>
     <use xlink:href="#Arial-BoldMT-6f" transform="translate(400.146484 0)"/>
     <use xlink:href="#Arial-BoldMT-74" transform="translate(461.230469 0)"/>
     <use xlink:href="#Arial-BoldMT-68" transform="translate(494.53125 0)"/>
     <use xlink:href="#Arial-BoldMT-3a" transform="translate(555.615234 0)"/>
     <use xlink:href="#Arial-BoldMT-20" transform="translate(588.916016 0)"/>
     <use xlink:href="#Arial-BoldMT-3bd" transform="translate(616.699219 0)"/>
     <use xlink:href="#Arial-BoldMT-2081" transform="translate(672.314453 0)"/>
     <use xlink:href="#Arial-BoldMT-20" transform="translate(747.314453 0)"/>
     <use xlink:href="#Arial-BoldMT-73" transform="translate(775.097656 0)"/>
     <use xlink:href="#Arial-BoldMT-74" transform="translate(830.712891 0)"/>
     <use xlink:href="#Arial-BoldMT-65" transform="translate(864.013672 0)"/>
     <use xlink:href="#Arial-BoldMT-70" transform="translate(919.628906 0)"/>
     <use xlink:href="#Arial-BoldMT-73" transform="translate(980.712891 0)"/>
    </g>
    <!-- Gauss-Seidel -->
    <g style="fill: #262626" transform="translate(396.722656 151.091174) scale(0.1 -0.1)">
     <defs>
      <path id="Arial-BoldMT-47" d="M 2597 1684 
L 2597 2456 
L 4591 2456 
L 4591 631 
Q 4300 350 3748 136 
Q 3197 -78 2631 -78 
Q 1913 -78 1378 223 
Q 844 525 575 1086 
Q 306 1647 306 2306 
Q 306 3022 606 3578 
Q 906 4134 1484 4431 
Q 1925 4659 2581 4659 
Q 3434 4659 3914 4301 
Q 4394 3944 4531 3313 
L 3613 3141 
Q 3516 3478 3248 3673 
Q 2981 3869 2581 3869 
Q 1975 3869 1617 3484 
Q 1259 3100 1259 2344 
Q 1259 1528 1621 1120 
Q 1984 713 2572 713 
Q 2863 713 3155 827 
Q 3447 941 3656 1103 
L 3656 1684 
L 2597 1684 
z
" transform="scale(0.015625)"/>
      <path id="Arial-BoldMT-64" d="M 3503 0 
L 2688 0 
L 2688 488 
Q 2484 203 2207 64 
Q 1931 -75 1650 -75 
Q 1078 -75 670 386 
Q 263 847 263 1672 
Q 263 2516 659 2955 
Q 1056 3394 1663 3394 
Q 2219 3394 2625 2931 
L 2625 4581 
L 3503 4581 
L 3503 0 
z
M 1159 1731 
Q 1159 1200 1306 963 
Q 1519 619 1900 619 
Q 2203 619 2415 876 
Q 2628 1134 2628 1647 
Q 2628 2219 2422 2470 
Q 2216 2722 1894 2722 
Q 1581 2722 1370 2473 
Q 1159 2225 1159 1731 
z
" transform="scale(0.015625)"/>
     </defs>
     <use xlink:href="#Arial-BoldMT-47"/>
     <use xlink:href="#Arial-BoldMT-61" transform="translate(77.783203 0)"/>
     <use xlink:href="#Arial-BoldMT-75" transform="translate(133.398438 0)"/>
     <use xlink:href="#Arial-BoldMT-73" transform="translate(194.482422 0)"/>
     <use xlink:href="#Arial-BoldMT-73" transform="translate(250.097656 0)"/>
     <use xlink:href="#Arial-BoldMT-2d" transform="translate(305.712891 0)"/>
     <use xlink:href="#Arial-BoldMT-53" transform="translate(339.013672 0)"/>
     <use xlink:href="#Arial-BoldMT-65" transform="translate(405.712891 0)"/>
     <use xlink:href="#Arial-BoldMT-69" transform="translate(461.328125 0)"/>
     <use xlink:href="#Arial-BoldMT-64" transform="translate(489.111328 0)"/>
     <use xlink:href="#Arial-BoldMT-65" transform="translate(550.195312 0)"/>
     <use xlink:href="#Arial-BoldMT-6c" transform="translate(605.810547 0)"/>
    </g>
   </g>
   <g id="text_3">
    <!-- Compute residual -->
    <g style="fill: #262626" transform="translate(386.173438 192.774339) scale(0.1 -0.1)">
     <use xlink:href="#Arial-BoldMT-43"/>
     <use xlink:href="#Arial-BoldMT-6f" transform="translate(72.216797 0)"/>
     <use xlink:href="#Arial-BoldMT-6d" transform="translate(133.300781 0)"/>
     <use xlink:href="#Arial-BoldMT-70" transform="translate(222.216797 0)"/>
     <use xlink:href="#Arial-BoldMT-75" transform="translate(283.300781 0)"/>
     <use xlink:href="#Arial-BoldMT-74" transform="translate(344.384766 0)"/>
     <use xlink:href="#Arial-BoldMT-65" transform="translate(377.685547 0)"/>
     <use xlink:href="#Arial-BoldMT-20" transform="translate(433.300781 0)"/>
     <use xlink:href="#Arial-BoldMT-72" transform="translate(461.083984 0)"/>
     <use xlink:href="#Arial-BoldMT-65" transform="translate(500 0)"/>
     <use xlink:href="#Arial-BoldMT-73" transform="translate(555.615234 0)"/>
     <use xlink:href="#Arial-BoldMT-69" transform="translate(611.230469 0)"/>
     <use xlink:href="#Arial-BoldMT-64" transform="translate(639.013672 0)"/>
     <use xlink:href="#Arial-BoldMT-75" transform="translate(700.097656 0)"/>
     <use xlink:href="#Arial-BoldMT-61" transform="translate(761.181641 0)"/>
     <use xlink:href="#Arial-BoldMT-6c" transform="translate(816.796875 0)"/>
    </g>
    <!-- r = f - Au -->
    <g style="fill: #262626" transform="translate(408.170313 203.337151) scale(0.1 -0.1)">
     <defs>
      <path id="Arial-BoldMT-3d" d="M 266 2550 
L 266 3356 
L 3469 3356 
L 3469 2550 
L 266 2550 
z
M 266 1163 
L 266 1972 
L 3469 1972 
L 3469 1163 
L 266 1163 
z
" transform="scale(0.015625)"/>
      <path id="Arial-BoldMT-66" d="M 75 3319 
L 563 3319 
L 563 3569 
Q 563 3988 652 4194 
Q 741 4400 980 4529 
Q 1219 4659 1584 4659 
Q 1959 4659 2319 4547 
L 2200 3934 
Q 1991 3984 1797 3984 
Q 1606 3984 1523 3895 
Q 1441 3806 1441 3553 
L 1441 3319 
L 2097 3319 
L 2097 2628 
L 1441 2628 
L 1441 0 
L 563 0 
L 563 2628 
L 75 2628 
L 75 3319 
z
" transform="scale(0.015625)"/>
      <path id="Arial-BoldMT-41" d="M 4597 0 
L 3591 0 
L 3191 1041 
L 1359 1041 
L 981 0 
L 0 0 
L 1784 4581 
L 2763 4581 
L 4597 0 
z
M 2894 1813 
L 2263 3513 
L 1644 1813 
L 2894 1813 
z
" transform="scale(0.015625)"/>
     </defs>
     <use xlink:href="#Arial-BoldMT-72"/>
     <use xlink:href="#Arial-BoldMT-20" transform="translate(38.916016 0)"/>
     <use xlink:href="#Arial-BoldMT-3d" transform="translate(66.699219 0)"/>
     <use xlink:href="#Arial-BoldMT-20" transform="translate(125.097656 0)"/>
     <use xlink:href="#Arial-BoldMT-66" transform="translate(152.880859 0)"/>
     <use xlink:href="#Arial-BoldMT-20" transform="translate(186.181641 0)"/>
     <use xlink:href="#Arial-BoldMT-2d" transform="translate(213.964844 0)"/>
     <use xlink:href="#Arial-BoldMT-20" transform="translate(247.265625 0)"/>
     <use xlink:href="#Arial-BoldMT-41" transform="translate(271.298828 0)"/>
     <use xlink:href="#Arial-BoldMT-75" transform="translate(343.515625 0)"/>
    </g>
   </g>
   <g id="text_4">
    <!-- Restrict to coarse grid -->
    <g style="fill: #262626" transform="translate(375.332031 244.832816) scale(0.1 -0.1)">
     <defs>
      <path id="Arial-BoldMT-52" d="M 469 0 
L 469 4581 
L 2416 4581 
Q 3150 4581 3483 4457 
Q 3816 4334 4016 4018 
Q 4216 3703 4216 3297 
Q 4216 2781 3912 2445 
Q 3609 2109 3006 2022 
Q 3306 1847 3501 1637 
Q 3697 1428 4028 894 
L 4588 0 
L 3481 0 
L 2813 997 
Q 2456 1531 2325 1670 
Q 2194 1809 2047 1861 
Q 1900 1913 1581 1913 
L 1394 1913 
L 1394 0 
L 469 0 
z
M 1394 2644 
L 2078 2644 
Q 2744 2644 2909 2700 
Q 3075 2756 3169 2893 
Q 3263 3031 3263 3238 
Q 3263 3469 3139 3611 
Q 3016 3753 2791 3791 
Q 2678 3806 2116 3806 
L 1394 3806 
L 1394 2644 
z
" transform="scale(0.015625)"/>
     </defs>
     <use xlink:href="#Arial-BoldMT-52"/>
     <use xlink:href="#Arial-BoldMT-65" transform="translate(72.216797 0)"/>
     <use xlink:href="#Arial-BoldMT-73" transform="translate(127.832031 0)"/>
     <use xlink:href="#Arial-BoldMT-74" transform="translate(183.447266 0)"/>
     <use xlink:href="#Arial-BoldMT-72" transform="translate(216.748047 0)"/>
     <use xlink:href="#Arial-BoldMT-69" transform="translate(255.664062 0)"/>
     <use xlink:href="#Arial-BoldMT-63" transform="translate(283.447266 0)"/>
     <use xlink:href="#Arial-BoldMT-74" transform="translate(339.0625 0)"/>
     <use xlink:href="#Arial-BoldMT-20" transform="translate(372.363281 0)"/>
     <use xlink:href="#Arial-BoldMT-74" transform="translate(400.146484 0)"/>
     <use xlink:href="#Arial-BoldMT-6f" transform="translate(433.447266 0)"/>
     <use xlink:href="#Arial-BoldMT-20" transform="translate(494.53125 0)"/>
     <use xlink:href="#Arial-BoldMT-63" transform="translate(522.314453 0)"/>
     <use xlink:href="#Arial-BoldMT-6f" transform="translate(577.929688 0)"/>
     <use xlink:href="#Arial-BoldMT-61" transform="translate(639.013672 0)"/>
     <use xlink:href="#Arial-BoldMT-72" transform="translate(694.628906 0)"/>
     <use xlink:href="#Arial-BoldMT-73" transform="translate(733.544922 0)"/>
     <use xlink:href="#Arial-BoldMT-65" transform="translate(789.160156 0)"/>
     <use xlink:href="#Arial-BoldMT-20" transform="translate(844.775391 0)"/>
     <use xlink:href="#Arial-BoldMT-67" transform="translate(872.558594 0)"/>
     <use xlink:href="#Arial-BoldMT-72" transform="translate(933.642578 0)"/>
     <use xlink:href="#Arial-BoldMT-69" transform="translate(972.558594 0)"/>
     <use xlink:href="#Arial-BoldMT-64" transform="translate(1000.341797 0)"/>
    </g>
    <!-- r₂ₕ = I₂ₕʰ rʰ -->
    <g style="fill: #262626" transform="translate(397.354688 255.526879) scale(0.1 -0.1)">
     <defs>
      <path id="Arial-BoldMT-2082" d="M 800 0 
L 800 4000 
L 4000 4000 
L 4000 0 
L 800 0 
z
M 900 100 
L 3900 100 
L 3900 3900 
L 900 3900 
L 900 100 
z
" transform="scale(0.015625)"/>
      <path id="Arial-BoldMT-2095" d="M 800 0 
L 800 4000 
L 4000 4000 
L 4000 0 
L 800 0 
z
M 900 100 
L 3900 100 
L 3900 3900 
L 900 3900 
L 900 100 
z
" transform="scale(0.015625)"/>
      <path id="Arial-BoldMT-2b0" d="M 2197 1481 
L 1603 1481 
L 1603 2669 
Q 1603 2953 1597 2994 
Q 1572 3184 1450 3266 
Q 1363 3322 1238 3322 
Q 909 3322 803 3034 
Q 750 2891 750 2606 
L 750 1481 
L 156 1481 
L 156 4581 
L 750 4581 
L 750 3441 
Q 1038 3778 1434 3778 
Q 1863 3778 2053 3506 
Q 2197 3303 2197 2800 
L 2197 1481 
z
" transform="scale(0.015625)"/>
     </defs>
     <use xlink:href="#Arial-BoldMT-72"/>
     <use xlink:href="#Arial-BoldMT-2082" transform="translate(38.916016 0)"/>
     <use xlink:href="#Arial-BoldMT-2095" transform="translate(113.916016 0)"/>
     <use xlink:href="#Arial-BoldMT-20" transform="translate(188.916016 0)"/>
     <use xlink:href="#Arial-BoldMT-3d" transform="translate(216.699219 0)"/>
     <use xlink:href="#Arial-BoldMT-20" transform="translate(275.097656 0)"/>
     <use xlink:href="#Arial-BoldMT-49" transform="translate(302.880859 0)"/>
     <use xlink:href="#Arial-BoldMT-2082" transform="translate(330.664062 0)"/>
     <use xlink:href="#Arial-BoldMT-2095" transform="translate(405.664062 0)"/>
     <use xlink:href="#Arial-BoldMT-2b0" transform="translate(480.664062 0)"/>
     <use xlink:href="#Arial-BoldMT-20" transform="translate(517.431641 0)"/>
     <use xlink:href="#Arial-BoldMT-72" transform="translate(545.214844 0)"/>
     <use xlink:href="#Arial-BoldMT-2b0" transform="translate(584.130859 0)"/>
    </g>
   </g>
   <g id="text_5">
    <!-- Coarsest -->
    <g style="fill: #262626" transform="translate(407.002344 297.083481) scale(0.1 -0.1)">
     <use xlink:href="#Arial-BoldMT-43"/>
     <use xlink:href="#Arial-BoldMT-6f" transform="translate(72.216797 0)"/>
     <use xlink:href="#Arial-BoldMT-61" transform="translate(133.300781 0)"/>
     <use xlink:href="#Arial-BoldMT-72" transform="translate(188.916016 0)"/>
     <use xlink:href="#Arial-BoldMT-73" transform="translate(227.832031 0)"/>
     <use xlink:href="#Arial-BoldMT-65" transform="translate(283.447266 0)"/>
     <use xlink:href="#Arial-BoldMT-73" transform="translate(339.0625 0)"/>
     <use xlink:href="#Arial-BoldMT-74" transform="translate(394.677734 0)"/>
    </g>
    <!-- Grid? -->
    <g style="fill: #262626" transform="translate(415.067969 307.646294) scale(0.1 -0.1)">
     <defs>
      <path id="Arial-BoldMT-3f" d="M 2347 1181 
L 1550 1181 
Q 1547 1353 1547 1391 
Q 1547 1778 1675 2028 
Q 1803 2278 2187 2590 
Q 2572 2903 2647 3000 
Q 2763 3153 2763 3338 
Q 2763 3594 2558 3776 
Q 2353 3959 2006 3959 
Q 1672 3959 1447 3768 
Q 1222 3578 1138 3188 
L 331 3288 
Q 366 3847 808 4237 
Q 1250 4628 1969 4628 
Q 2725 4628 3172 4233 
Q 3619 3838 3619 3313 
Q 3619 3022 3455 2762 
Q 3291 2503 2753 2056 
Q 2475 1825 2408 1684 
Q 2341 1544 2347 1181 
z
M 1550 0 
L 1550 878 
L 2428 878 
L 2428 0 
L 1550 0 
z
" transform="scale(0.015625)"/>
     </defs>
     <use xlink:href="#Arial-BoldMT-47"/>
     <use xlink:href="#Arial-BoldMT-72" transform="translate(77.783203 0)"/>
     <use xlink:href="#Arial-BoldMT-69" transform="translate(116.699219 0)"/>
     <use xlink:href="#Arial-BoldMT-64" transform="translate(144.482422 0)"/>
     <use xlink:href="#Arial-BoldMT-3f" transform="translate(205.566406 0)"/>
    </g>
   </g>
   <g id="text_6">
    <!-- Direct solve -->
    <g style="fill: #262626" transform="translate(189.454688 349.268521) scale(0.1 -0.1)">
     <defs>
      <path id="Arial-BoldMT-44" d="M 463 4581 
L 2153 4581 
Q 2725 4581 3025 4494 
Q 3428 4375 3715 4072 
Q 4003 3769 4153 3330 
Q 4303 2891 4303 2247 
Q 4303 1681 4163 1272 
Q 3991 772 3672 463 
Q 3431 228 3022 97 
Q 2716 0 2203 0 
L 463 0 
L 463 4581 
z
M 1388 3806 
L 1388 772 
L 2078 772 
Q 2466 772 2638 816 
Q 2863 872 3011 1006 
Q 3159 1141 3253 1448 
Q 3347 1756 3347 2288 
Q 3347 2819 3253 3103 
Q 3159 3388 2990 3547 
Q 2822 3706 2563 3763 
Q 2369 3806 1803 3806 
L 1388 3806 
z
" transform="scale(0.015625)"/>
      <path id="Arial-BoldMT-76" d="M 1372 0 
L 34 3319 
L 956 3319 
L 1581 1625 
L 1763 1059 
Q 1834 1275 1853 1344 
Q 1897 1484 1947 1625 
L 2578 3319 
L 3481 3319 
L 2163 0 
L 1372 0 
z
" transform="scale(0.015625)"/>
     </defs>
     <use xlink:href="#Arial-BoldMT-44"/>
     <use xlink:href="#Arial-BoldMT-69" transform="translate(72.216797 0)"/>
     <use xlink:href="#Arial-BoldMT-72" transform="translate(100 0)"/>
     <use xlink:href="#Arial-BoldMT-65" transform="translate(138.916016 0)"/>
     <use xlink:href="#Arial-BoldMT-63" transform="translate(194.53125 0)"/>
     <use xlink:href="#Arial-BoldMT-74" transform="translate(250.146484 0)"/>
     <use xlink:href="#Arial-BoldMT-20" transform="translate(283.447266 0)"/>
     <use xlink:href="#Arial-BoldMT-73" transform="translate(311.230469 0)"/>
     <use xlink:href="#Arial-BoldMT-6f" transform="translate(366.845703 0)"/>
     <use xlink:href="#Arial-BoldMT-6c" transform="translate(427.929688 0)"/>
     <use xlink:href="#Arial-BoldMT-76" transform="translate(455.712891 0)"/>
     <use xlink:href="#Arial-BoldMT-65" transform="translate(511.328125 0)"/>
    </g>
    <!-- A₂ₕe₂ₕ = r₂ₕ -->
    <g style="fill: #262626" transform="translate(181.264063 359.831334) scale(0.1 -0.1)">
     <use xlink:href="#Arial-BoldMT-41"/>
     <use xlink:href="#Arial-BoldMT-2082" transform="translate(72.216797 0)"/>
     <use xlink:href="#Arial-BoldMT-2095" transform="translate(147.216797 0)"/>
     <use xlink:href="#Arial-BoldMT-65" transform="translate(222.216797 0)"/>
     <use xlink:href="#Arial-BoldMT-2082" transform="translate(277.832031 0)"/>
     <use xlink:href="#Arial-BoldMT-2095" transform="translate(352.832031 0)"/>
     <use xlink:href="#Arial-BoldMT-20" transform="translate(427.832031 0)"/>
     <use xlink:href="#Arial-BoldMT-3d" transform="translate(455.615234 0)"/>
     <use xlink:href="#Arial-BoldMT-20" transform="translate(514.013672 0)"/>
     <use xlink:href="#Arial-BoldMT-72" transform="translate(541.796875 0)"/>
     <use xlink:href="#Arial-BoldMT-2082" transform="translate(580.712891 0)"/>
     <use xlink:href="#Arial-BoldMT-2095" transform="translate(655.712891 0)"/>
    </g>
   </g>
   <g id="text_7">
    <!-- Recursive V-cycle -->
    <g style="fill: #262626" transform="translate(596.472656 349.137271) scale(0.1 -0.1)">
     <use xlink:href="#Arial-BoldMT-52"/>
     <use xlink:href="#Arial-BoldMT-65" transform="translate(72.216797 0)"/>
     <use xlink:href="#Arial-BoldMT-63" transform="translate(127.832031 0)"/>
     <use xlink:href="#Arial-BoldMT-75" transform="translate(183.447266 0)"/>
     <use xlink:href="#Arial-BoldMT-72" transform="translate(244.53125 0)"/>
     <use xlink:href="#Arial-BoldMT-73" transform="translate(283.447266 0)"/>
     <use xlink:href="#Arial-BoldMT-69" transform="translate(339.0625 0)"/>
     <use xlink:href="#Arial-BoldMT-76" transform="translate(366.845703 0)"/>
     <use xlink:href="#Arial-BoldMT-65" transform="translate(422.460938 0)"/>
     <use xlink:href="#Arial-BoldMT-20" transform="translate(478.076172 0)"/>
     <use xlink:href="#Arial-BoldMT-56" transform="translate(505.859375 0)"/>
     <use xlink:href="#Arial-BoldMT-2d" transform="translate(567.058594 0)"/>
     <use xlink:href="#Arial-BoldMT-63" transform="translate(600.359375 0)"/>
     <use xlink:href="#Arial-BoldMT-79" transform="translate(655.974609 0)"/>
     <use xlink:href="#Arial-BoldMT-63" transform="translate(711.589844 0)"/>
     <use xlink:href="#Arial-BoldMT-6c" transform="translate(767.205078 0)"/>
     <use xlink:href="#Arial-BoldMT-65" transform="translate(794.988281 0)"/>
    </g>
    <!-- on coarse grid -->
    <g style="fill: #262626" transform="translate(604.549219 359.831334) scale(0.1 -0.1)">
     <use xlink:href="#Arial-BoldMT-6f"/>
     <use xlink:href="#Arial-BoldMT-6e" transform="translate(61.083984 0)"/>
     <use xlink:href="#Arial-BoldMT-20" transform="translate(122.167969 0)"/>
     <use xlink:href="#Arial-BoldMT-63" transform="translate(149.951172 0)"/>
     <use xlink:href="#Arial-BoldMT-6f" transform="translate(205.566406 0)"/>
     <use xlink:href="#Arial-BoldMT-61" transform="translate(266.650391 0)"/>
     <use xlink:href="#Arial-BoldMT-72" transform="translate(322.265625 0)"/>
     <use xlink:href="#Arial-BoldMT-73" transform="translate(361.181641 0)"/>
     <use xlink:href="#Arial-BoldMT-65" transform="translate(416.796875 0)"/>
     <use xlink:href="#Arial-BoldMT-20" transform="translate(472.412109 0)"/>
     <use xlink:href="#Arial-BoldMT-67" transform="translate(500.195312 0)"/>
     <use xlink:href="#Arial-BoldMT-72" transform="translate(561.279297 0)"/>
     <use xlink:href="#Arial-BoldMT-69" transform="translate(600.195312 0)"/>
     <use xlink:href="#Arial-BoldMT-64" transform="translate(627.978516 0)"/>
    </g>
   </g>
   <g id="text_8">
    <!-- Prolongate correction -->
    <g style="fill: #262626" transform="translate(376.45 401.387936) scale(0.1 -0.1)">
     <use xlink:href="#Arial-BoldMT-50"/>
     <use xlink:href="#Arial-BoldMT-72" transform="translate(66.699219 0)"/>
     <use xlink:href="#Arial-BoldMT-6f" transform="translate(105.615234 0)"/>
     <use xlink:href="#Arial-BoldMT-6c" transform="translate(166.699219 0)"/>
     <use xlink:href="#Arial-BoldMT-6f" transform="translate(194.482422 0)"/>
     <use xlink:href="#Arial-BoldMT-6e" transform="translate(255.566406 0)"/>
     <use xlink:href="#Arial-BoldMT-67" transform="translate(316.650391 0)"/>
     <use xlink:href="#Arial-BoldMT-61" transform="translate(377.734375 0)"/>
     <use xlink:href="#Arial-BoldMT-74" transform="translate(433.349609 0)"/>
     <use xlink:href="#Arial-BoldMT-65" transform="translate(466.650391 0)"/>
     <use xlink:href="#Arial-BoldMT-20" transform="translate(522.265625 0)"/>
     <use xlink:href="#Arial-BoldMT-63" transform="translate(550.048828 0)"/>
     <use xlink:href="#Arial-BoldMT-6f" transform="translate(605.664062 0)"/>
     <use xlink:href="#Arial-BoldMT-72" transform="translate(666.748047 0)"/>
     <use xlink:href="#Arial-BoldMT-72" transform="translate(705.664062 0)"/>
     <use xlink:href="#Arial-BoldMT-65" transform="translate(744.580078 0)"/>
     <use xlink:href="#Arial-BoldMT-63" transform="translate(800.195312 0)"/>
     <use xlink:href="#Arial-BoldMT-74" transform="translate(855.810547 0)"/>
     <use xlink:href="#Arial-BoldMT-69" transform="translate(889.111328 0)"/>
     <use xlink:href="#Arial-BoldMT-6f" transform="translate(916.894531 0)"/>
     <use xlink:href="#Arial-BoldMT-6e" transform="translate(977.978516 0)"/>
    </g>
    <!-- eʰ = Iʰ₂ₕ e₂ₕ -->
    <g style="fill: #262626" transform="translate(395.685938 412.081999) scale(0.1 -0.1)">
     <use xlink:href="#Arial-BoldMT-65"/>
     <use xlink:href="#Arial-BoldMT-2b0" transform="translate(55.615234 0)"/>
     <use xlink:href="#Arial-BoldMT-20" transform="translate(92.382812 0)"/>
     <use xlink:href="#Arial-BoldMT-3d" transform="translate(120.166016 0)"/>
     <use xlink:href="#Arial-BoldMT-20" transform="translate(178.564453 0)"/>
     <use xlink:href="#Arial-BoldMT-49" transform="translate(206.347656 0)"/>
     <use xlink:href="#Arial-BoldMT-2b0" transform="translate(234.130859 0)"/>
     <use xlink:href="#Arial-BoldMT-2082" transform="translate(270.898438 0)"/>
     <use xlink:href="#Arial-BoldMT-2095" transform="translate(345.898438 0)"/>
     <use xlink:href="#Arial-BoldMT-20" transform="translate(420.898438 0)"/>
     <use xlink:href="#Arial-BoldMT-65" transform="translate(448.681641 0)"/>
     <use xlink:href="#Arial-BoldMT-2082" transform="translate(504.296875 0)"/>
     <use xlink:href="#Arial-BoldMT-2095" transform="translate(579.296875 0)"/>
    </g>
   </g>
   <g id="text_9">
    <!-- Correct solution -->
    <g style="fill: #262626" transform="translate(389.789062 453.638601) scale(0.1 -0.1)">
     <use xlink:href="#Arial-BoldMT-43"/>
     <use xlink:href="#Arial-BoldMT-6f" transform="translate(72.216797 0)"/>
     <use xlink:href="#Arial-BoldMT-72" transform="translate(133.300781 0)"/>
     <use xlink:href="#Arial-BoldMT-72" transform="translate(172.216797 0)"/>
     <use xlink:href="#Arial-BoldMT-65" transform="translate(211.132812 0)"/>
     <use xlink:href="#Arial-BoldMT-63" transform="translate(266.748047 0)"/>
     <use xlink:href="#Arial-BoldMT-74" transform="translate(322.363281 0)"/>
     <use xlink:href="#Arial-BoldMT-20" transform="translate(355.664062 0)"/>
     <use xlink:href="#Arial-BoldMT-73" transform="translate(383.447266 0)"/>
     <use xlink:href="#Arial-BoldMT-6f" transform="translate(439.0625 0)"/>
     <use xlink:href="#Arial-BoldMT-6c" transform="translate(500.146484 0)"/>
     <use xlink:href="#Arial-BoldMT-75" transform="translate(527.929688 0)"/>
     <use xlink:href="#Arial-BoldMT-74" transform="translate(589.013672 0)"/>
     <use xlink:href="#Arial-BoldMT-69" transform="translate(622.314453 0)"/>
     <use xlink:href="#Arial-BoldMT-6f" transform="translate(650.097656 0)"/>
     <use xlink:href="#Arial-BoldMT-6e" transform="translate(711.181641 0)"/>
    </g>
    <!-- uʰ = uʰ + eʰ -->
    <g style="fill: #262626" transform="translate(402.6 464.201414) scale(0.1 -0.1)">
     <defs>
      <path id="Arial-BoldMT-2b" d="M 1466 659 
L 1466 1850 
L 266 1850 
L 266 2672 
L 1466 2672 
L 1466 3863 
L 2266 3863 
L 2266 2672 
L 3469 2672 
L 3469 1850 
L 2266 1850 
L 2266 659 
L 1466 659 
z
" transform="scale(0.015625)"/>
     </defs>
     <use xlink:href="#Arial-BoldMT-75"/>
     <use xlink:href="#Arial-BoldMT-2b0" transform="translate(61.083984 0)"/>
     <use xlink:href="#Arial-BoldMT-20" transform="translate(97.851562 0)"/>
     <use xlink:href="#Arial-BoldMT-3d" transform="translate(125.634766 0)"/>
     <use xlink:href="#Arial-BoldMT-20" transform="translate(184.033203 0)"/>
     <use xlink:href="#Arial-BoldMT-75" transform="translate(211.816406 0)"/>
     <use xlink:href="#Arial-BoldMT-2b0" transform="translate(272.900391 0)"/>
     <use xlink:href="#Arial-BoldMT-20" transform="translate(309.667969 0)"/>
     <use xlink:href="#Arial-BoldMT-2b" transform="translate(337.451172 0)"/>
     <use xlink:href="#Arial-BoldMT-20" transform="translate(395.849609 0)"/>
     <use xlink:href="#Arial-BoldMT-65" transform="translate(423.632812 0)"/>
     <use xlink:href="#Arial-BoldMT-2b0" transform="translate(479.248047 0)"/>
    </g>
   </g>
   <g id="text_10">
    <!-- Post-smooth: ν₂ steps -->
    <g style="fill: #262626" transform="translate(373.814063 505.823641) scale(0.1 -0.1)">
     <use xlink:href="#Arial-BoldMT-50"/>
     <use xlink:href="#Arial-BoldMT-6f" transform="translate(66.699219 0)"/>
     <use xlink:href="#Arial-BoldMT-73" transform="translate(127.783203 0)"/>
     <use xlink:href="#Arial-BoldMT-74" transform="translate(183.398438 0)"/>
     <use xlink:href="#Arial-BoldMT-2d" transform="translate(216.699219 0)"/>
     <use xlink:href="#Arial-BoldMT-73" transform="translate(250 0)"/>
     <use xlink:href="#Arial-BoldMT-6d" transform="translate(305.615234 0)"/>
     <use xlink:href="#Arial-BoldMT-6f" transform="translate(394.53125 0)"/>
     <use xlink:href="#Arial-BoldMT-6f" transform="translate(455.615234 0)"/>
     <use xlink:href="#Arial-BoldMT-74" transform="translate(516.699219 0)"/>
     <use xlink:href="#Arial-BoldMT-68" transform="translate(550 0)"/>
     <use xlink:href="#Arial-BoldMT-3a" transform="translate(611.083984 0)"/>
     <use xlink:href="#Arial-BoldMT-20" transform="translate(644.384766 0)"/>
     <use xlink:href="#Arial-BoldMT-3bd" transform="translate(672.167969 0)"/>
     <use xlink:href="#Arial-BoldMT-2082" transform="translate(727.783203 0)"/>
     <use xlink:href="#Arial-BoldMT-20" transform="translate(802.783203 0)"/>
     <use xlink:href="#Arial-BoldMT-73" transform="translate(830.566406 0)"/>
     <use xlink:href="#Arial-BoldMT-74" transform="translate(886.181641 0)"/>
     <use xlink:href="#Arial-BoldMT-65" transform="translate(919.482422 0)"/>
     <use xlink:href="#Arial-BoldMT-70" transform="translate(975.097656 0)"/>
     <use xlink:href="#Arial-BoldMT-73" transform="translate(1036.181641 0)"/>
    </g>
    <!-- Gauss-Seidel -->
    <g style="fill: #262626" transform="translate(396.722656 516.386454) scale(0.1 -0.1)">
     <use xlink:href="#Arial-BoldMT-47"/>
     <use xlink:href="#Arial-BoldMT-61" transform="translate(77.783203 0)"/>
     <use xlink:href="#Arial-BoldMT-75" transform="translate(133.398438 0)"/>
     <use xlink:href="#Arial-BoldMT-73" transform="translate(194.482422 0)"/>
     <use xlink:href="#Arial-BoldMT-73" transform="translate(250.097656 0)"/>
     <use xlink:href="#Arial-BoldMT-2d" transform="translate(305.712891 0)"/>
     <use xlink:href="#Arial-BoldMT-53" transform="translate(339.013672 0)"/>
     <use xlink:href="#Arial-BoldMT-65" transform="translate(405.712891 0)"/>
     <use xlink:href="#Arial-BoldMT-69" transform="translate(461.328125 0)"/>
     <use xlink:href="#Arial-BoldMT-64" transform="translate(489.111328 0)"/>
     <use xlink:href="#Arial-BoldMT-65" transform="translate(550.195312 0)"/>
     <use xlink:href="#Arial-BoldMT-6c" transform="translate(605.810547 0)"/>
    </g>
   </g>
   <g id="text_11">
    <!-- Return corrected -->
    <g style="fill: #262626" transform="translate(388.114063 547.571673) scale(0.1 -0.1)">
     <use xlink:href="#Arial-BoldMT-52"/>
     <use xlink:href="#Arial-BoldMT-65" transform="translate(72.216797 0)"/>
     <use xlink:href="#Arial-BoldMT-74" transform="translate(127.832031 0)"/>
     <use xlink:href="#Arial-BoldMT-75" transform="translate(161.132812 0)"/>
     <use xlink:href="#Arial-BoldMT-72" transform="translate(222.216797 0)"/>
     <use xlink:href="#Arial-BoldMT-6e" transform="translate(261.132812 0)"/>
     <use xlink:href="#Arial-BoldMT-20" transform="translate(322.216797 0)"/>
     <use xlink:href="#Arial-BoldMT-63" transform="translate(350 0)"/>
     <use xlink:href="#Arial-BoldMT-6f" transform="translate(405.615234 0)"/>
     <use xlink:href="#Arial-BoldMT-72" transform="translate(466.699219 0)"/>
     <use xlink:href="#Arial-BoldMT-72" transform="translate(505.615234 0)"/>
     <use xlink:href="#Arial-BoldMT-65" transform="translate(544.53125 0)"/>
     <use xlink:href="#Arial-BoldMT-63" transform="translate(600.146484 0)"/>
     <use xlink:href="#Arial-BoldMT-74" transform="translate(655.761719 0)"/>
     <use xlink:href="#Arial-BoldMT-65" transform="translate(689.0625 0)"/>
     <use xlink:href="#Arial-BoldMT-64" transform="translate(744.677734 0)"/>
    </g>
    <!-- solution -->
    <g style="fill: #262626" transform="translate(408.960938 558.134486) scale(0.1 -0.1)">
     <use xlink:href="#Arial-BoldMT-73"/>
     <use xlink:href="#Arial-BoldMT-6f" transform="translate(55.615234 0)"/>
     <use xlink:href="#Arial-BoldMT-6c" transform="translate(116.699219 0)"/>
     <use xlink:href="#Arial-BoldMT-75" transform="translate(144.482422 0)"/>
     <use xlink:href="#Arial-BoldMT-74" transform="translate(205.566406 0)"/>
     <use xlink:href="#Arial-BoldMT-69" transform="translate(238.867188 0)"/>
     <use xlink:href="#Arial-BoldMT-6f" transform="translate(266.650391 0)"/>
     <use xlink:href="#Arial-BoldMT-6e" transform="translate(327.734375 0)"/>
    </g>
   </g>
   <g id="patch_13">
    <path d="M 428.4 108.688309 
Q 428.4 117.122981 428.4 123.321585 
" style="fill: none; stroke: #000000; stroke-width: 2; stroke-linecap: round"/>
    <path d="M 430.4 119.321585 
L 428.4 123.321585 
L 426.4 119.321585 
" style="fill: none; stroke: #000000; stroke-width: 2; stroke-linecap: round"/>
   </g>
   <g id="patch_14">
    <path d="M 428.4 160.873349 
Q 428.4 169.308021 428.4 175.506625 
" style="fill: none; stroke: #000000; stroke-width: 2; stroke-linecap: round"/>
    <path d="M 430.4 171.506625 
L 428.4 175.506625 
L 426.4 171.506625 
" style="fill: none; stroke: #000000; stroke-width: 2; stroke-linecap: round"/>
   </g>
   <g id="patch_15">
    <path d="M 428.4 213.058389 
Q 428.4 221.493061 428.4 227.691665 
" style="fill: none; stroke: #000000; stroke-width: 2; stroke-linecap: round"/>
    <path d="M 430.4 223.691665 
L 428.4 227.691665 
L 426.4 223.691665 
" style="fill: none; stroke: #000000; stroke-width: 2; stroke-linecap: round"/>
   </g>
   <g id="patch_16">
    <path d="M 428.4 265.243429 
Q 428.4 273.678101 428.4 279.876705 
" style="fill: none; stroke: #000000; stroke-width: 2; stroke-linecap: round"/>
    <path d="M 430.4 275.876705 
L 428.4 279.876705 
L 426.4 275.876705 
" style="fill: none; stroke: #000000; stroke-width: 2; stroke-linecap: round"/>
   </g>
   <g id="patch_17">
    <path d="M 359.053677 310.642088 
Q 302.037965 323.256418 247.205526 335.387714 
" style="fill: none; stroke: #000000; stroke-width: 2; stroke-linecap: round"/>
    <path d="M 251.543121 336.476415 
L 247.205526 335.387714 
L 250.679044 332.570859 
" style="fill: none; stroke: #000000; stroke-width: 2; stroke-linecap: round"/>
   </g>
   <g id="text_12">
    <!-- Yes -->
    <g style="fill: #ff0000" transform="translate(318.888 323.255968) scale(0.09 -0.09)">
     <defs>
      <path id="ArialMT-59" d="M 1784 0 
L 1784 1941 
L 19 4581 
L 756 4581 
L 1659 3200 
Q 1909 2813 2125 2425 
Q 2331 2784 2625 3234 
L 3513 4581 
L 4219 4581 
L 2391 1941 
L 2391 0 
L 1784 0 
z
" transform="scale(0.015625)"/>
      <path id="ArialMT-65" d="M 2694 1069 
L 3275 997 
Q 3138 488 2766 206 
Q 2394 -75 1816 -75 
Q 1088 -75 661 373 
Q 234 822 234 1631 
Q 234 2469 665 2931 
Q 1097 3394 1784 3394 
Q 2450 3394 2872 2941 
Q 3294 2488 3294 1666 
Q 3294 1616 3291 1516 
L 816 1516 
Q 847 969 1125 678 
Q 1403 388 1819 388 
Q 2128 388 2347 550 
Q 2566 713 2694 1069 
z
M 847 1978 
L 2700 1978 
Q 2663 2397 2488 2606 
Q 2219 2931 1791 2931 
Q 1403 2931 1139 2672 
Q 875 2413 847 1978 
z
" transform="scale(0.015625)"/>
      <path id="ArialMT-73" d="M 197 991 
L 753 1078 
Q 800 744 1014 566 
Q 1228 388 1613 388 
Q 2000 388 2187 545 
Q 2375 703 2375 916 
Q 2375 1106 2209 1216 
Q 2094 1291 1634 1406 
Q 1016 1563 777 1677 
Q 538 1791 414 1992 
Q 291 2194 291 2438 
Q 291 2659 392 2848 
Q 494 3038 669 3163 
Q 800 3259 1026 3326 
Q 1253 3394 1513 3394 
Q 1903 3394 2198 3281 
Q 2494 3169 2634 2976 
Q 2775 2784 2828 2463 
L 2278 2388 
Q 2241 2644 2061 2787 
Q 1881 2931 1553 2931 
Q 1166 2931 1000 2803 
Q 834 2675 834 2503 
Q 834 2394 903 2306 
Q 972 2216 1119 2156 
Q 1203 2125 1616 2013 
Q 2213 1853 2448 1751 
Q 2684 1650 2818 1456 
Q 2953 1263 2953 975 
Q 2953 694 2789 445 
Q 2625 197 2315 61 
Q 2006 -75 1616 -75 
Q 969 -75 630 194 
Q 291 463 197 991 
z
" transform="scale(0.015625)"/>
     </defs>
     <use xlink:href="#ArialMT-59"/>
     <use xlink:href="#ArialMT-65" transform="translate(57.574219 0)"/>
     <use xlink:href="#ArialMT-73" transform="translate(113.189453 0)"/>
    </g>
   </g>
   <g id="patch_18">
    <path d="M 497.746323 310.642088 
Q 554.762035 323.256418 609.594474 335.387714 
" style="fill: none; stroke: #000000; stroke-width: 2; stroke-linecap: round"/>
    <path d="M 606.120956 332.570859 
L 609.594474 335.387714 
L 605.256879 336.476415 
" style="fill: none; stroke: #000000; stroke-width: 2; stroke-linecap: round"/>
   </g>
   <g id="text_13">
    <!-- No -->
    <g style="fill: #ff0000" transform="translate(571.608 323.255968) scale(0.09 -0.09)">
     <defs>
      <path id="ArialMT-4e" d="M 488 0 
L 488 4581 
L 1109 4581 
L 3516 984 
L 3516 4581 
L 4097 4581 
L 4097 0 
L 3475 0 
L 1069 3600 
L 1069 0 
L 488 0 
z
" transform="scale(0.015625)"/>
      <path id="ArialMT-6f" d="M 213 1659 
Q 213 2581 725 3025 
Q 1153 3394 1769 3394 
Q 2453 3394 2887 2945 
Q 3322 2497 3322 1706 
Q 3322 1066 3130 698 
Q 2938 331 2570 128 
Q 2203 -75 1769 -75 
Q 1072 -75 642 372 
Q 213 819 213 1659 
z
M 791 1659 
Q 791 1022 1069 705 
Q 1347 388 1769 388 
Q 2188 388 2466 706 
Q 2744 1025 2744 1678 
Q 2744 2294 2464 2611 
Q 2184 2928 1769 2928 
Q 1347 2928 1069 2612 
Q 791 2297 791 1659 
z
" transform="scale(0.015625)"/>
     </defs>
     <use xlink:href="#ArialMT-4e"/>
     <use xlink:href="#ArialMT-6f" transform="translate(72.216797 0)"/>
    </g>
   </g>
   <g id="patch_19">
    <path d="M 219.787229 367.859462 
Q 302.041558 378.050453 382.076786 387.966506 
" style="fill: none; stroke: #000000; stroke-width: 2; stroke-linecap: round"/>
    <path d="M 378.353049 385.489858 
L 382.076786 387.966506 
L 377.861225 389.459506 
" style="fill: none; stroke: #000000; stroke-width: 2; stroke-linecap: round"/>
   </g>
   <g id="patch_20">
    <path d="M 637.012771 367.859462 
Q 554.758442 378.050453 474.723214 387.966506 
" style="fill: none; stroke: #000000; stroke-width: 2; stroke-linecap: round"/>
    <path d="M 478.938775 389.459506 
L 474.723214 387.966506 
L 478.446951 385.489858 
" style="fill: none; stroke: #000000; stroke-width: 2; stroke-linecap: round"/>
   </g>
   <g id="patch_21">
    <path d="M 428.4 421.798549 
Q 428.4 430.233221 428.4 436.431825 
" style="fill: none; stroke: #000000; stroke-width: 2; stroke-linecap: round"/>
    <path d="M 430.4 432.431825 
L 428.4 436.431825 
L 426.4 432.431825 
" style="fill: none; stroke: #000000; stroke-width: 2; stroke-linecap: round"/>
   </g>
   <g id="patch_22">
    <path d="M 428.4 473.983589 
Q 428.4 482.418261 428.4 488.616865 
" style="fill: none; stroke: #000000; stroke-width: 2; stroke-linecap: round"/>
    <path d="M 430.4 484.616865 
L 428.4 488.616865 
L 426.4 484.616865 
" style="fill: none; stroke: #000000; stroke-width: 2; stroke-linecap: round"/>
   </g>
   <g id="patch_23">
    <path d="M 428.4 526.167355 
Q 428.4 531.997052 428.4 535.590682 
" style="fill: none; stroke: #000000; stroke-width: 2; stroke-linecap: round"/>
    <path d="M 430.4 531.590682 
L 428.4 535.590682 
L 426.4 531.590682 
" style="fill: none; stroke: #000000; stroke-width: 2; stroke-linecap: round"/>
   </g>
   <g id="text_14">
    <!-- V-Cycle Multigrid Algorithm Flowchart -->
    <g style="fill: #262626" transform="translate(283.8075 18.8475) scale(0.16 -0.16)">
     <defs>
      <path id="Arial-BoldMT-4d" d="M 453 0 
L 453 4581 
L 1838 4581 
L 2669 1456 
L 3491 4581 
L 4878 4581 
L 4878 0 
L 4019 0 
L 4019 3606 
L 3109 0 
L 2219 0 
L 1313 3606 
L 1313 0 
L 453 0 
z
" transform="scale(0.015625)"/>
      <path id="Arial-BoldMT-46" d="M 472 0 
L 472 4581 
L 3613 4581 
L 3613 3806 
L 1397 3806 
L 1397 2722 
L 3309 2722 
L 3309 1947 
L 1397 1947 
L 1397 0 
L 472 0 
z
" transform="scale(0.015625)"/>
      <path id="Arial-BoldMT-77" d="M 1078 0 
L 28 3319 
L 881 3319 
L 1503 1144 
L 2075 3319 
L 2922 3319 
L 3475 1144 
L 4109 3319 
L 4975 3319 
L 3909 0 
L 3066 0 
L 2494 2134 
L 1931 0 
L 1078 0 
z
" transform="scale(0.015625)"/>
     </defs>
     <use xlink:href="#Arial-BoldMT-56"/>
     <use xlink:href="#Arial-BoldMT-2d" transform="translate(61.199219 0)"/>
     <use xlink:href="#Arial-BoldMT-43" transform="translate(94.5 0)"/>
     <use xlink:href="#Arial-BoldMT-79" transform="translate(166.716797 0)"/>
     <use xlink:href="#Arial-BoldMT-63" transform="translate(222.332031 0)"/>
     <use xlink:href="#Arial-BoldMT-6c" transform="translate(277.947266 0)"/>
     <use xlink:href="#Arial-BoldMT-65" transform="translate(305.730469 0)"/>
     <use xlink:href="#Arial-BoldMT-20" transform="translate(361.345703 0)"/>
     <use xlink:href="#Arial-BoldMT-4d" transform="translate(389.128906 0)"/>
     <use xlink:href="#Arial-BoldMT-75" transform="translate(472.429688 0)"/>
     <use xlink:href="#Arial-BoldMT-6c" transform="translate(533.513672 0)"/>
     <use xlink:href="#Arial-BoldMT-74" transform="translate(561.296875 0)"/>
     <use xlink:href="#Arial-BoldMT-69" transform="translate(594.597656 0)"/>
     <use xlink:href="#Arial-BoldMT-67" transform="translate(622.380859 0)"/>
     <use xlink:href="#Arial-BoldMT-72" transform="translate(683.464844 0)"/>
     <use xlink:href="#Arial-BoldMT-69" transform="translate(722.380859 0)"/>
     <use xlink:href="#Arial-BoldMT-64" transform="translate(750.164062 0)"/>
     <use xlink:href="#Arial-BoldMT-20" transform="translate(811.248047 0)"/>
     <use xlink:href="#Arial-BoldMT-41" transform="translate(835.28125 0)"/>
     <use xlink:href="#Arial-BoldMT-6c" transform="translate(907.498047 0)"/>
     <use xlink:href="#Arial-BoldMT-67" transform="translate(935.28125 0)"/>
     <use xlink:href="#Arial-BoldMT-6f" transform="translate(996.365234 0)"/>
     <use xlink:href="#Arial-BoldMT-72" transform="translate(1057.449219 0)"/>
     <use xlink:href="#Arial-BoldMT-69" transform="translate(1096.365234 0)"/>
     <use xlink:href="#Arial-BoldMT-74" transform="translate(1124.148438 0)"/>
     <use xlink:href="#Arial-BoldMT-68" transform="translate(1157.449219 0)"/>
     <use xlink:href="#Arial-BoldMT-6d" transform="translate(1218.533203 0)"/>
     <use xlink:href="#Arial-BoldMT-20" transform="translate(1307.449219 0)"/>
     <use xlink:href="#Arial-BoldMT-46" transform="translate(1335.232422 0)"/>
     <use xlink:href="#Arial-BoldMT-6c" transform="translate(1396.316406 0)"/>
     <use xlink:href="#Arial-BoldMT-6f" transform="translate(1424.099609 0)"/>
     <use xlink:href="#Arial-BoldMT-77" transform="translate(1485.183594 0)"/>
     <use xlink:href="#Arial-BoldMT-63" transform="translate(1562.966797 0)"/>
     <use xlink:href="#Arial-BoldMT-68" transform="translate(1618.582031 0)"/>
     <use xlink:href="#Arial-BoldMT-61" transform="translate(1679.666016 0)"/>
     <use xlink:href="#Arial-BoldMT-72" transform="translate(1735.28125 0)"/>
     <use xlink:href="#Arial-BoldMT-74" transform="translate(1774.197266 0)"/>
    </g>
   </g>
  </g>
 </g>
 <defs>
  <clipPath id="pa1dbc5463e">
   <rect x="7.2" y="38.8475" width="842.4" height="521.8504"/>
  </clipPath>
 </defs>
</svg>
